<?xml version="1.0" encoding="utf-8"?>
<svg version="1.1" id="Layer_1" xmlns="http://www.w3.org/2000/svg" xmlns:xlink="http://www.w3.org/1999/xlink" x="0px" y="0px"
	 viewBox="0 0 2560 1600" enable-background="new 0 0 2560 1600" xml:space="preserve">
<g>
	<g>
		<polygon fill="none" stroke="#000000" stroke-miterlimit="10" points="1580.123,630.981 1549.123,461.981 1406.123,667.981 		"/>
		<polygon fill="none" stroke="#000000" stroke-miterlimit="10" points="1406.123,667.981 1549.123,461.981 1266.123,556.981 		"/>
		<polygon fill="none" stroke="#000000" stroke-miterlimit="10" points="1647.123,418.981 1549.123,461.981 1580.123,630.981 		"/>
		<polygon fill="none" stroke="#000000" stroke-miterlimit="10" points="1549.123,461.981 1316.123,381.981 1266.123,556.981 		"/>
		<polygon fill="none" stroke="#000000" stroke-miterlimit="10" points="1549.123,461.981 1490.123,280.981 1316.123,381.981 		"/>
		<polygon fill="none" stroke="#000000" stroke-miterlimit="10" points="1647.123,418.981 1645.123,360.981 1549.123,461.981 		"/>
		<polygon fill="none" stroke="#000000" stroke-miterlimit="10" points="1645.123,360.981 1490.123,280.981 1549.123,461.981 		"/>
		<polygon fill="none" stroke="#000000" stroke-miterlimit="10" points="1815.123,650.981 1647.123,418.981 1580.123,630.981 		"/>
		<polygon fill="none" stroke="#000000" stroke-miterlimit="10" points="1868.123,491.981 1645.123,360.981 1647.123,418.981 		"/>
		<polygon fill="none" stroke="#000000" stroke-miterlimit="10" points="1580.123,630.981 1440.123,877.981 1704.123,760.981 		"/>
		<polygon fill="none" stroke="#000000" stroke-miterlimit="10" points="1406.123,667.981 1440.123,877.981 1580.123,630.981 		"/>
		<polygon fill="none" stroke="#000000" stroke-miterlimit="10" points="1335.123,901.981 1440.123,877.981 1406.123,667.981 		"/>
		<polygon fill="none" stroke="#000000" stroke-miterlimit="10" points="1406.123,667.981 1132.123,833.981 1335.123,901.981 		"/>
		<polygon fill="none" stroke="#000000" stroke-miterlimit="10" points="1266.123,556.981 1200.123,361.981 1137.123,573.981 		"/>
		<polygon fill="none" stroke="#000000" stroke-miterlimit="10" points="1316.123,381.981 1200.123,361.981 1266.123,556.981 		"/>
		<polygon fill="none" stroke="#000000" stroke-miterlimit="10" points="1316.123,381.981 1227.123,190.981 1200.123,361.981 		"/>
		<polygon fill="none" stroke="#000000" stroke-miterlimit="10" points="1704.123,760.981 1815.123,650.981 1580.123,630.981 		"/>
		<polygon fill="none" stroke="#000000" stroke-miterlimit="10" points="1101.123,771.981 1406.123,667.981 1266.123,556.981 		"/>
		<polygon fill="none" stroke="#000000" stroke-miterlimit="10" points="1815.123,650.981 1868.123,491.981 1647.123,418.981 		"/>
		<polygon fill="none" stroke="#000000" stroke-miterlimit="10" points="1440.123,877.981 1677.123,920.981 1704.123,760.981 		"/>
		<polygon fill="none" stroke="#000000" stroke-miterlimit="10" points="1937.123,799.981 1815.123,650.981 1704.123,760.981 		"/>
		<polygon fill="none" stroke="#000000" stroke-miterlimit="10" points="1440.123,877.981 1657.123,990.981 1677.123,920.981 		"/>
		<polygon fill="none" stroke="#000000" stroke-miterlimit="10" points="1137.123,573.981 1101.123,771.981 1266.123,556.981 		"/>
		<polygon fill="none" stroke="#000000" stroke-miterlimit="10" points="1317.123,965.981 1440.123,877.981 1335.123,901.981 		"/>
		<polygon fill="none" stroke="#000000" stroke-miterlimit="10" points="1335.123,901.981 1132.123,833.981 1317.123,965.981 		"/>
		<polygon fill="none" stroke="#000000" stroke-miterlimit="10" points="1645.123,360.981 1727.123,206.981 1490.123,280.981 		"/>
		<polygon fill="none" stroke="#000000" stroke-miterlimit="10" points="1490.123,280.981 1227.123,190.981 1316.123,381.981 		"/>
		<polygon fill="none" stroke="#000000" stroke-miterlimit="10" points="1868.123,491.981 1727.123,206.981 1645.123,360.981 		"/>
		<polygon fill="none" stroke="#000000" stroke-miterlimit="10" points="1101.123,771.981 1132.123,833.981 1406.123,667.981 		"/>
		<polygon fill="none" stroke="#000000" stroke-miterlimit="10" points="1490.123,280.981 1348.123,70.981 1227.123,190.981 		"/>
		<polygon fill="none" stroke="#000000" stroke-miterlimit="10" points="1137.123,573.981 926.123,457.981 966.123,633.981 		"/>
		<polygon fill="none" stroke="#000000" stroke-miterlimit="10" points="1727.123,206.981 1479.123,114.981 1490.123,280.981 		"/>
		<polygon fill="none" stroke="#000000" stroke-miterlimit="10" points="1704.123,760.981 1677.123,920.981 1937.123,799.981 		"/>
		<polygon fill="none" stroke="#000000" stroke-miterlimit="10" points="1539.123,1045.981 1657.123,990.981 1440.123,877.981 		"/>
		<polygon fill="none" stroke="#000000" stroke-miterlimit="10" points="1317.123,965.981 1539.123,1045.981 1440.123,877.981 		"/>
		<polygon fill="none" stroke="#000000" stroke-miterlimit="10" points="1479.123,114.981 1348.123,70.981 1490.123,280.981 		"/>
		<polygon fill="none" stroke="#000000" stroke-miterlimit="10" points="966.123,633.981 1101.123,771.981 1137.123,573.981 		"/>
		<polygon fill="none" stroke="#000000" stroke-miterlimit="10" points="1001.123,777.981 1132.123,833.981 1101.123,771.981 		"/>
		<polygon fill="none" stroke="#000000" stroke-miterlimit="10" points="1200.123,361.981 1015.123,328.981 1137.123,573.981 		"/>
		<polygon fill="none" stroke="#000000" stroke-miterlimit="10" points="1200.123,361.981 1227.123,190.981 1015.123,328.981 		"/>
		<polygon fill="none" stroke="#000000" stroke-miterlimit="10" points="1227.123,190.981 1033.123,132.981 1015.123,328.981 		"/>
		<polygon fill="none" stroke="#000000" stroke-miterlimit="10" points="1677.123,920.981 1854.123,1054.981 1937.123,799.981 		"/>
		<polygon fill="none" stroke="#000000" stroke-miterlimit="10" points="2056.123,474.981 1868.123,491.981 2051.123,711.981 		"/>
		<polygon fill="none" stroke="#000000" stroke-miterlimit="10" points="1001.123,777.981 1101.123,771.981 966.123,633.981 		"/>
		<polygon fill="none" stroke="#000000" stroke-miterlimit="10" points="1132.123,833.981 1238.123,1129.981 1317.123,965.981 		"/>
		<polygon fill="none" stroke="#000000" stroke-miterlimit="10" points="1975.123,375.981 1727.123,206.981 1868.123,491.981 		"/>
		<polygon fill="none" stroke="#000000" stroke-miterlimit="10" points="1975.123,375.981 1868.123,491.981 2056.123,474.981 		"/>
		<polygon fill="none" stroke="#000000" stroke-miterlimit="10" points="1015.123,328.981 926.123,457.981 1137.123,573.981 		"/>
		<polygon fill="none" stroke="#000000" stroke-miterlimit="10" points="2051.123,711.981 1868.123,491.981 1815.123,650.981 		"/>
		<polygon fill="none" stroke="#000000" stroke-miterlimit="10" points="1539.123,1045.981 1591.123,1139.981 1657.123,990.981 		
			"/>
		<polygon fill="none" stroke="#000000" stroke-miterlimit="10" points="1677.123,920.981 1657.123,990.981 1854.123,1054.981 		"/>
		<polygon fill="none" stroke="#000000" stroke-miterlimit="10" points="1356.123,1267.981 1591.123,1139.981 1539.123,1045.981 		
			"/>
		<polygon fill="none" stroke="#000000" stroke-miterlimit="10" points="1238.123,1129.981 1539.123,1045.981 1317.123,965.981 		
			"/>
		<polygon fill="none" stroke="#000000" stroke-miterlimit="10" points="2051.123,711.981 1815.123,650.981 1937.123,799.981 		"/>
		<polygon fill="none" stroke="#000000" stroke-miterlimit="10" points="2074.123,863.981 2051.123,711.981 1937.123,799.981 		"/>
		<polygon fill="none" stroke="#000000" stroke-miterlimit="10" points="1977.123,212.981 1727.123,206.981 1975.123,375.981 		"/>
		<polygon fill="none" stroke="#000000" stroke-miterlimit="10" points="2040.123,284.981 1977.123,212.981 1975.123,375.981 		"/>
		<polygon fill="none" stroke="#000000" stroke-miterlimit="10" points="1132.123,833.981 1002.123,1157.981 1238.123,1129.981 		
			"/>
		<polygon fill="none" stroke="#000000" stroke-miterlimit="10" points="1015.123,328.981 793.123,270.981 926.123,457.981 		"/>
		<polygon fill="none" stroke="#000000" stroke-miterlimit="10" points="1657.123,990.981 1802.123,1182.981 1854.123,1054.981 		
			"/>
		<polygon fill="none" stroke="#000000" stroke-miterlimit="10" points="2040.123,284.981 1975.123,375.981 2056.123,474.981 		"/>
		<polygon fill="none" stroke="#000000" stroke-miterlimit="10" points="2078.123,985.981 2074.123,863.981 1937.123,799.981 		"/>
		<polygon fill="none" stroke="#000000" stroke-miterlimit="10" points="2051.123,711.981 2200.123,497.981 2056.123,474.981 		"/>
		<polygon fill="none" stroke="#000000" stroke-miterlimit="10" points="917.123,1074.981 1132.123,833.981 1001.123,777.981 		"/>
		<polygon fill="none" stroke="#000000" stroke-miterlimit="10" points="846.123,810.981 1001.123,777.981 966.123,633.981 		"/>
		<polygon fill="none" stroke="#000000" stroke-miterlimit="10" points="846.123,810.981 966.123,633.981 752.123,685.981 		"/>
		<polygon fill="none" stroke="#000000" stroke-miterlimit="10" points="1854.123,1054.981 2078.123,985.981 1937.123,799.981 		"/>
		<polygon fill="none" stroke="#000000" stroke-miterlimit="10" points="1657.123,990.981 1787.123,1195.981 1802.123,1182.981 		
			"/>
		<polygon fill="none" stroke="#000000" stroke-miterlimit="10" points="1591.123,1139.981 1787.123,1195.981 1657.123,990.981 		
			"/>
		<polygon fill="none" stroke="#000000" stroke-miterlimit="10" points="1033.123,132.981 869.123,202.981 1015.123,328.981 		"/>
		<polygon fill="none" stroke="#000000" stroke-miterlimit="10" points="966.123,633.981 736.123,561.981 752.123,685.981 		"/>
		<polygon fill="none" stroke="#000000" stroke-miterlimit="10" points="1591.123,1139.981 1651.123,1382.981 1787.123,1195.981 		
			"/>
		<polygon fill="none" stroke="#000000" stroke-miterlimit="10" points="1238.123,1129.981 1356.123,1267.981 1539.123,1045.981 		
			"/>
		<polygon fill="none" stroke="#000000" stroke-miterlimit="10" points="1197.123,1249.981 1356.123,1267.981 1238.123,1129.981 		
			"/>
		<polygon fill="none" stroke="#000000" stroke-miterlimit="10" points="2200.123,366.981 2040.123,284.981 2056.123,474.981 		"/>
		<polygon fill="none" stroke="#000000" stroke-miterlimit="10" points="2040.123,94.981 1977.123,212.981 2171.123,180.981 		"/>
		<polygon fill="none" stroke="#000000" stroke-miterlimit="10" points="2323.123,666.981 2200.123,497.981 2051.123,711.981 		"/>
		<polygon fill="none" stroke="#000000" stroke-miterlimit="10" points="966.123,633.981 926.123,457.981 736.123,561.981 		"/>
		<polygon fill="none" stroke="#000000" stroke-miterlimit="10" points="2171.123,180.981 1977.123,212.981 2040.123,284.981 		"/>
		<polygon fill="none" stroke="#000000" stroke-miterlimit="10" points="2283.123,850.981 2323.123,666.981 2051.123,711.981 		"/>
		<polygon fill="none" stroke="#000000" stroke-miterlimit="10" points="2125.123,1162.981 2078.123,985.981 1854.123,1054.981 		
			"/>
		<polygon fill="none" stroke="#000000" stroke-miterlimit="10" points="1854.123,1054.981 1802.123,1182.981 2125.123,1162.981 		
			"/>
		<polygon fill="none" stroke="#000000" stroke-miterlimit="10" points="926.123,457.981 674.123,440.981 736.123,561.981 		"/>
		<polygon fill="none" stroke="#000000" stroke-miterlimit="10" points="1002.123,1157.981 1197.123,1249.981 1238.123,1129.981 		
			"/>
		<polygon fill="none" stroke="#000000" stroke-miterlimit="10" points="869.123,202.981 793.123,270.981 1015.123,328.981 		"/>
		<polygon fill="none" stroke="#000000" stroke-miterlimit="10" points="2200.123,497.981 2200.123,366.981 2056.123,474.981 		"/>
		<polygon fill="none" stroke="#000000" stroke-miterlimit="10" points="816.123,956.981 917.123,1074.981 1001.123,777.981 		"/>
		<polygon fill="none" stroke="#000000" stroke-miterlimit="10" points="816.123,956.981 1001.123,777.981 846.123,810.981 		"/>
		<polygon fill="none" stroke="#000000" stroke-miterlimit="10" points="917.123,1074.981 1002.123,1157.981 1132.123,833.981 		"/>
		<polygon fill="none" stroke="#000000" stroke-miterlimit="10" points="675.123,779.981 816.123,956.981 846.123,810.981 		"/>
		<polygon fill="none" stroke="#000000" stroke-miterlimit="10" points="2171.123,180.981 2040.123,284.981 2200.123,366.981 		"/>
		<polygon fill="none" stroke="#000000" stroke-miterlimit="10" points="591.123,767.981 675.123,779.981 752.123,685.981 		"/>
		<polygon fill="none" stroke="#000000" stroke-miterlimit="10" points="752.123,685.981 675.123,779.981 846.123,810.981 		"/>
		<polygon fill="none" stroke="#000000" stroke-miterlimit="10" points="926.123,457.981 793.123,270.981 674.123,440.981 		"/>
		<polygon fill="none" stroke="#000000" stroke-miterlimit="10" points="736.123,561.981 591.123,767.981 752.123,685.981 		"/>
		<polygon fill="none" stroke="#000000" stroke-miterlimit="10" points="1484.123,1410.981 1651.123,1382.981 1591.123,1139.981 		
			"/>
		<polygon fill="none" stroke="#000000" stroke-miterlimit="10" points="1802.123,1182.981 2133.123,1367.981 2125.123,1162.981 		
			"/>
		<polygon fill="none" stroke="#000000" stroke-miterlimit="10" points="1356.123,1267.981 1484.123,1410.981 1591.123,1139.981 		
			"/>
		<polygon fill="none" stroke="#000000" stroke-miterlimit="10" points="1197.123,1249.981 1360.123,1404.981 1356.123,1267.981 		
			"/>
		<polygon fill="none" stroke="#000000" stroke-miterlimit="10" points="1360.123,1404.981 1484.123,1410.981 1356.123,1267.981 		
			"/>
		<polygon fill="none" stroke="#000000" stroke-miterlimit="10" points="1116.123,1371.981 1360.123,1404.981 1197.123,1249.981 		
			"/>
		<polygon fill="none" stroke="#000000" stroke-miterlimit="10" points="674.123,440.981 793.123,270.981 606.123,272.981 		"/>
		<polygon fill="none" stroke="#000000" stroke-miterlimit="10" points="2074.123,863.981 2283.123,850.981 2051.123,711.981 		"/>
		<polygon fill="none" stroke="#000000" stroke-miterlimit="10" points="2200.123,366.981 2346.123,191.981 2171.123,180.981 		"/>
		<polygon fill="none" stroke="#000000" stroke-miterlimit="10" points="2244.123,1023.981 2283.123,850.981 2074.123,863.981 		"/>
		<polygon fill="none" stroke="#000000" stroke-miterlimit="10" points="2078.123,985.981 2244.123,1023.981 2074.123,863.981 		"/>
		<polygon fill="none" stroke="#000000" stroke-miterlimit="10" points="1002.123,1157.981 1116.123,1371.981 1197.123,1249.981 		
			"/>
		<polygon fill="none" stroke="#000000" stroke-miterlimit="10" points="854.123,1186.981 1002.123,1157.981 917.123,1074.981 		"/>
		<polygon fill="none" stroke="#000000" stroke-miterlimit="10" points="854.123,1186.981 917.123,1074.981 816.123,956.981 		"/>
		<polygon fill="none" stroke="#000000" stroke-miterlimit="10" points="593.123,1061.981 854.123,1186.981 816.123,956.981 		"/>
		<polygon fill="none" stroke="#000000" stroke-miterlimit="10" points="1787.123,1195.981 1826.123,1469.981 1802.123,1182.981 		
			"/>
		<polygon fill="none" stroke="#000000" stroke-miterlimit="10" points="861.123,1358.981 1116.123,1371.981 1002.123,1157.981 		
			"/>
		<polygon fill="none" stroke="#000000" stroke-miterlimit="10" points="2175.123,1132.981 2244.123,1023.981 2078.123,985.981 		
			"/>
		<polygon fill="none" stroke="#000000" stroke-miterlimit="10" points="2125.123,1162.981 2175.123,1132.981 2078.123,985.981 		
			"/>
		<polygon fill="none" stroke="#000000" stroke-miterlimit="10" points="675.123,779.981 593.123,1061.981 816.123,956.981 		"/>
		<polygon fill="none" stroke="#000000" stroke-miterlimit="10" points="736.123,561.981 460.123,515.981 591.123,767.981 		"/>
		<polygon fill="none" stroke="#000000" stroke-miterlimit="10" points="793.123,270.981 606.123,164.981 606.123,272.981 		"/>
		<polygon fill="none" stroke="#000000" stroke-miterlimit="10" points="674.123,440.981 460.123,515.981 736.123,561.981 		"/>
		<polygon fill="none" stroke="#000000" stroke-miterlimit="10" points="2200.123,497.981 2440.123,582.981 2200.123,366.981 		"/>
		<polygon fill="none" stroke="#000000" stroke-miterlimit="10" points="606.123,272.981 529.123,374.981 674.123,440.981 		"/>
		<polygon fill="none" stroke="#000000" stroke-miterlimit="10" points="606.123,272.981 476.123,113.981 529.123,374.981 		"/>
		<polygon fill="none" stroke="#000000" stroke-miterlimit="10" points="2323.123,666.981 2440.123,582.981 2200.123,497.981 		"/>
		<polygon fill="none" stroke="#000000" stroke-miterlimit="10" points="1787.123,1195.981 1651.123,1382.981 1826.123,1469.981 		
			"/>
		<polygon fill="none" stroke="#000000" stroke-miterlimit="10" points="2133.123,1367.981 2175.123,1132.981 2125.123,1162.981 		
			"/>
		<polygon fill="none" stroke="#000000" stroke-miterlimit="10" points="2368.123,1011.981 2401.123,912.981 2283.123,850.981 		"/>
		<polygon fill="none" stroke="#000000" stroke-miterlimit="10" points="2244.123,1023.981 2368.123,1011.981 2283.123,850.981 		
			"/>
		<polygon fill="none" stroke="#000000" stroke-miterlimit="10" points="2391.123,1171.981 2368.123,1011.981 2244.123,1023.981 		
			"/>
		<polygon fill="none" stroke="#000000" stroke-miterlimit="10" points="2175.123,1132.981 2391.123,1171.981 2244.123,1023.981 		
			"/>
		<polygon fill="none" stroke="#000000" stroke-miterlimit="10" points="861.123,1358.981 1002.123,1157.981 854.123,1186.981 		"/>
		<polygon fill="none" stroke="#000000" stroke-miterlimit="10" points="701.123,1261.981 861.123,1358.981 854.123,1186.981 		"/>
		<polygon fill="none" stroke="#000000" stroke-miterlimit="10" points="471.123,891.981 593.123,1061.981 675.123,779.981 		"/>
		<polygon fill="none" stroke="#000000" stroke-miterlimit="10" points="591.123,767.981 471.123,891.981 675.123,779.981 		"/>
		<polygon fill="none" stroke="#000000" stroke-miterlimit="10" points="529.123,374.981 460.123,515.981 674.123,440.981 		"/>
		<polygon fill="none" stroke="#000000" stroke-miterlimit="10" points="529.123,374.981 291.123,329.981 460.123,515.981 		"/>
		<polygon fill="none" stroke="#000000" stroke-miterlimit="10" points="1001.123,1461.981 1116.123,1371.981 861.123,1358.981 		
			"/>
		<polygon fill="none" stroke="#000000" stroke-miterlimit="10" points="1802.123,1182.981 1826.123,1469.981 2133.123,1367.981 		
			"/>
		<polygon fill="none" stroke="#000000" stroke-miterlimit="10" points="1826.123,1469.981 1947.123,1528.981 2133.123,1367.981 		
			"/>
		<polygon fill="none" stroke="#000000" stroke-miterlimit="10" points="593.123,1061.981 701.123,1261.981 854.123,1186.981 		"/>
		<polygon fill="none" stroke="#000000" stroke-miterlimit="10" points="368.123,687.981 471.123,891.981 591.123,767.981 		"/>
		<polygon fill="none" stroke="#000000" stroke-miterlimit="10" points="540.123,1455.981 674.123,1452.981 701.123,1261.981 		"/>
		<polygon fill="none" stroke="#000000" stroke-miterlimit="10" points="606.123,164.981 476.123,113.981 606.123,272.981 		"/>
		<polygon fill="none" stroke="#000000" stroke-miterlimit="10" points="2133.123,1367.981 2391.123,1171.981 2175.123,1132.981 		
			"/>
		<polygon fill="none" stroke="#000000" stroke-miterlimit="10" points="2214.123,1452.981 2391.123,1171.981 2133.123,1367.981 		
			"/>
		<polygon fill="none" stroke="#000000" stroke-miterlimit="10" points="264.123,571.981 282.123,645.981 368.123,687.981 		"/>
		<polygon fill="none" stroke="#000000" stroke-miterlimit="10" points="460.123,515.981 368.123,687.981 591.123,767.981 		"/>
		<polygon fill="none" stroke="#000000" stroke-miterlimit="10" points="460.123,515.981 264.123,571.981 368.123,687.981 		"/>
		<polygon fill="none" stroke="#000000" stroke-miterlimit="10" points="2171.123,1490.981 2214.123,1452.981 2133.123,1367.981 		
			"/>
		<polygon fill="none" stroke="#000000" stroke-miterlimit="10" points="1947.123,1528.981 2171.123,1490.981 2133.123,1367.981 		
			"/>
		<polygon fill="none" stroke="#000000" stroke-miterlimit="10" points="701.123,1261.981 674.123,1452.981 861.123,1358.981 		"/>
		<polygon fill="none" stroke="#000000" stroke-miterlimit="10" points="412.123,1210.981 701.123,1261.981 593.123,1061.981 		"/>
		<polygon fill="none" stroke="#000000" stroke-miterlimit="10" points="368.123,687.981 253.123,786.981 471.123,891.981 		"/>
		<polygon fill="none" stroke="#000000" stroke-miterlimit="10" points="476.123,113.981 291.123,329.981 529.123,374.981 		"/>
		<polygon fill="none" stroke="#000000" stroke-miterlimit="10" points="381.123,1098.981 593.123,1061.981 471.123,891.981 		"/>
		<polygon fill="none" stroke="#000000" stroke-miterlimit="10" points="476.123,113.981 252.123,92.981 291.123,329.981 		"/>
		<polygon fill="none" stroke="#000000" stroke-miterlimit="10" points="291.123,329.981 264.123,571.981 460.123,515.981 		"/>
		<polygon fill="none" stroke="#000000" stroke-miterlimit="10" points="282.123,645.981 253.123,786.981 368.123,687.981 		"/>
		<polygon fill="none" stroke="#000000" stroke-miterlimit="10" points="471.123,891.981 340.123,1096.981 381.123,1098.981 		"/>
		<polygon fill="none" stroke="#000000" stroke-miterlimit="10" points="282.123,645.981 171.123,671.981 253.123,786.981 		"/>
		<polygon fill="none" stroke="#000000" stroke-miterlimit="10" points="381.123,1098.981 412.123,1210.981 593.123,1061.981 		"/>
		<polygon fill="none" stroke="#000000" stroke-miterlimit="10" points="340.123,1096.981 412.123,1210.981 381.123,1098.981 		"/>
		<polygon fill="none" stroke="#000000" stroke-miterlimit="10" points="253.123,786.981 340.123,1096.981 471.123,891.981 		"/>
		<polygon fill="none" stroke="#000000" stroke-miterlimit="10" points="2459.123,1426.981 2391.123,1171.981 2214.123,1452.981 		
			"/>
		<polygon fill="none" stroke="#000000" stroke-miterlimit="10" points="412.123,1210.981 540.123,1455.981 701.123,1261.981 		"/>
		<polygon fill="none" stroke="#000000" stroke-miterlimit="10" points="253.123,786.981 137.123,1018.981 340.123,1096.981 		"/>
		<polygon fill="none" stroke="#000000" stroke-miterlimit="10" points="264.123,571.981 171.123,671.981 282.123,645.981 		"/>
		<polygon fill="none" stroke="#000000" stroke-miterlimit="10" points="151.123,486.981 171.123,671.981 264.123,571.981 		"/>
		<polygon fill="none" stroke="#000000" stroke-miterlimit="10" points="291.123,329.981 151.123,486.981 264.123,571.981 		"/>
		<polygon fill="none" stroke="#000000" stroke-miterlimit="10" points="127.123,339.981 151.123,486.981 291.123,329.981 		"/>
		<polygon fill="none" stroke="#000000" stroke-miterlimit="10" points="126.123,149.981 127.123,339.981 291.123,329.981 		"/>
		<polygon fill="none" stroke="#000000" stroke-miterlimit="10" points="252.123,92.981 126.123,149.981 291.123,329.981 		"/>
		<polygon fill="none" stroke="#000000" stroke-miterlimit="10" points="219.123,1299.981 412.123,1210.981 340.123,1096.981 		"/>
		<polygon fill="none" stroke="#000000" stroke-miterlimit="10" points="236.123,1333.981 540.123,1455.981 412.123,1210.981 		"/>
		<polygon fill="none" stroke="#000000" stroke-miterlimit="10" points="340.123,1096.981 131.123,1257.981 219.123,1299.981 		"/>
		<polygon fill="none" stroke="#000000" stroke-miterlimit="10" points="219.123,1299.981 236.123,1333.981 412.123,1210.981 		"/>
		<polygon fill="none" stroke="#000000" stroke-miterlimit="10" points="137.123,1018.981 131.123,1257.981 340.123,1096.981 		"/>
		<polygon fill="none" stroke="#000000" stroke-miterlimit="10" points="123.123,1387.981 236.123,1333.981 219.123,1299.981 		"/>
		<polygon fill="none" stroke="#000000" stroke-miterlimit="10" points="131.123,1257.981 123.123,1387.981 219.123,1299.981 		"/>
	</g>
	<g>
		<circle cx="1549.122" cy="461.981" r="20"/>
		<circle cx="1580.122" cy="630.981" r="20"/>
		<circle cx="1647.122" cy="418.981" r="20"/>
		<circle cx="1266.122" cy="556.981" r="20"/>
		<circle cx="1335.122" cy="901.981" r="20"/>
		<circle cx="1316.122" cy="381.981" r="20"/>
		<circle cx="1645.122" cy="360.981" r="20"/>
		<circle cx="1406.122" cy="667.981" r="20"/>
		<circle cx="1704.122" cy="760.981" r="20"/>
		<circle cx="1440.122" cy="877.981" r="20"/>
		<circle cx="1490.122" cy="280.981" r="20"/>
		<circle cx="1200.123" cy="361.981" r="20"/>
		<circle cx="1101.123" cy="771.981" r="20"/>
		<circle cx="1137.123" cy="573.981" r="20"/>
		<circle cx="1868.122" cy="491.981" r="20"/>
		<circle cx="1677.122" cy="920.981" r="20"/>
		<circle cx="1317.122" cy="965.981" r="20"/>
		<circle cx="1815.122" cy="650.981" r="20"/>
		<circle cx="1479.122" cy="114.981" r="20"/>
		<circle cx="1227.123" cy="190.981" r="20"/>
		<circle cx="1975.122" cy="375.981" r="20"/>
		<circle cx="1937.122" cy="799.981" r="20"/>
		<circle cx="1657.122" cy="990.981" r="20"/>
		<circle cx="1727.122" cy="206.981" r="20"/>
		<circle cx="1539.122" cy="1045.981" r="20"/>
		<circle cx="966.123" cy="633.981" r="20"/>
		<circle cx="1977.122" cy="212.981" r="20"/>
		<circle cx="1854.122" cy="1054.981" r="20"/>
		<circle cx="1238.123" cy="1129.981" r="20"/>
		<circle cx="1015.123" cy="328.981" r="20"/>
		<circle cx="869.123" cy="202.981" r="20"/>
		<circle cx="2056.123" cy="474.981" r="20"/>
		<circle cx="1001.123" cy="777.981" r="20"/>
		<circle cx="1132.123" cy="833.981" r="20"/>
		<circle cx="2040.122" cy="284.981" r="20"/>
		<circle cx="846.123" cy="810.981" r="20"/>
		<circle cx="926.123" cy="457.981" r="20"/>
		<circle cx="752.123" cy="685.981" r="20"/>
		<circle cx="2040.122" cy="94.981" r="20"/>
		<circle cx="1591.122" cy="1139.981" r="20"/>
		<circle cx="1356.122" cy="1267.981" r="20"/>
		<circle cx="1033.123" cy="132.981" r="20"/>
		<circle cx="2051.123" cy="711.981" r="20"/>
		<circle cx="2074.123" cy="863.981" r="20"/>
		<circle cx="1197.123" cy="1249.981" r="20"/>
		<circle cx="917.123" cy="1074.981" r="20"/>
		<circle cx="2078.123" cy="985.981" r="20"/>
		<circle cx="816.123" cy="956.981" r="20"/>
		<circle cx="736.123" cy="561.981" r="20"/>
		<circle cx="793.123" cy="270.981" r="20"/>
		<circle cx="2200.123" cy="497.981" r="20"/>
		<circle cx="2323.123" cy="666.981" r="20"/>
		<circle cx="2171.123" cy="180.981" r="20"/>
		<circle cx="2125.123" cy="1162.981" r="20"/>
		<circle cx="1484.122" cy="1410.981" r="20"/>
		<circle cx="2244.123" cy="1023.981" r="20"/>
		<circle cx="1002.123" cy="1157.981" r="20"/>
		<circle cx="2283.123" cy="850.981" r="20"/>
		<circle cx="675.123" cy="779.981" r="20"/>
		<circle cx="674.123" cy="440.981" r="20"/>
		<circle cx="2200.123" cy="366.981" r="20"/>
		<path d="M1822.122,1182.981c0-11.046-8.954-20-20-20c-8.722,0-16.119,5.592-18.854,13.379c-9.2,1.797-16.146,9.894-16.146,19.621
			c0,11.046,8.955,20,20,20c8.722,0,16.119-5.592,18.854-13.379C1815.177,1200.804,1822.122,1192.707,1822.122,1182.981z"/>
		<circle cx="854.123" cy="1186.981" r="20"/>
		<circle cx="1651.122" cy="1382.981" r="20"/>
		<circle cx="2401.123" cy="912.981" r="20"/>
		<circle cx="606.123" cy="272.981" r="20"/>
		<circle cx="606.123" cy="164.981" r="20"/>
		<circle cx="1116.123" cy="1371.981" r="20"/>
		<circle cx="1001.123" cy="1461.981" r="20"/>
		<circle cx="2175.123" cy="1132.981" r="20"/>
		<circle cx="591.123" cy="767.981" r="20"/>
		<circle cx="1360.122" cy="1404.981" r="20"/>
		<circle cx="2440.123" cy="582.981" r="20"/>
		<circle cx="2346.123" cy="191.981" r="20"/>
		<circle cx="2133.123" cy="1367.981" r="20"/>
		<circle cx="861.123" cy="1358.981" r="20"/>
		<circle cx="1826.122" cy="1469.981" r="20"/>
		<circle cx="529.123" cy="374.981" r="20"/>
		<circle cx="2368.123" cy="1011.981" r="20"/>
		<circle cx="476.123" cy="113.981" r="20"/>
		<circle cx="460.123" cy="515.981" r="20"/>
		<circle cx="368.123" cy="687.981" r="20"/>
		<circle cx="593.123" cy="1061.981" r="20"/>
		<circle cx="381.123" cy="1098.981" r="20"/>
		<circle cx="471.123" cy="891.981" r="20"/>
		<circle cx="701.123" cy="1261.981" r="20"/>
		<circle cx="282.123" cy="645.981" r="20"/>
		<circle cx="264.123" cy="571.981" r="20"/>
		<circle cx="2214.123" cy="1452.981" r="20"/>
		<circle cx="2391.123" cy="1171.981" r="20"/>
		<circle cx="291.123" cy="329.981" r="20"/>
		<circle cx="2171.123" cy="1490.981" r="20"/>
		<circle cx="674.123" cy="1452.981" r="20"/>
		<circle cx="253.123" cy="786.981" r="20"/>
		<circle cx="412.123" cy="1210.981" r="20"/>
		<circle cx="340.123" cy="1096.981" r="20"/>
		<circle cx="127.123" cy="339.981" r="20"/>
		<circle cx="126.123" cy="149.981" r="20"/>
		<circle cx="252.123" cy="92.981" r="20"/>
		<circle cx="540.123" cy="1455.981" r="20"/>
		<circle cx="171.123" cy="671.981" r="20"/>
		<circle cx="151.123" cy="486.981" r="20"/>
		<circle cx="137.123" cy="1018.981" r="20"/>
		<path d="M236.123,1313.981c-1.012,0-1.999,0.099-2.97,0.245c3.683-3.627,5.97-8.667,5.97-14.245c0-11.046-8.954-20-20-20
			s-20,8.954-20,20c0,11.046,8.954,20,20,20c1.012,0,1.999-0.099,2.97-0.245c-3.683,3.627-5.97,8.667-5.97,14.245
			c0,11.046,8.954,20,20,20s20-8.954,20-20C256.123,1322.935,247.168,1313.981,236.123,1313.981z"/>
		<circle cx="131.123" cy="1257.981" r="20"/>
		<circle cx="123.123" cy="1387.981" r="20"/>
	</g>
</g>
</svg>
